<svg version="1.1" id="Layer_1" xmlns="http://www.w3.org/2000/svg" xmlns:xlink="http://www.w3.org/1999/xlink" x="0px" y="0px"
	 width="100%" viewBox="0 0 512 512" enable-background="new 0 0 512 512" xml:space="preserve">
<path fill="#000000" opacity="1.000000" stroke="none" 
	d="
M1.000000,123.000000 
	C1.000000,82.356865 1.000000,41.713726 1.000000,1.035294 
	C171.544388,1.035294 342.088776,1.035294 513.000000,1.035294 
	C513.000000,41.353485 513.000000,81.708084 512.607605,122.547745 
	C509.019897,122.356453 505.826538,121.102295 502.628967,121.091522 
	C462.807678,120.957199 422.985291,120.905670 383.164398,121.089165 
	C375.575073,121.124138 367.880249,121.659531 360.422913,123.008049 
	C323.544342,129.676865 294.257080,148.531204 272.984650,179.353531 
	C266.917847,188.143906 262.154144,197.833633 256.655182,207.349304 
	C256.042297,206.088593 255.364243,204.824234 254.799057,203.511292 
	C248.316483,188.452103 239.594635,174.773239 228.290253,162.955475 
	C215.570312,149.657883 200.808212,139.094269 183.737900,131.845871 
	C167.831116,125.091530 151.425323,120.977875 134.059326,120.992691 
	C94.404228,121.026512 54.748810,120.937027 15.094274,121.091270 
	C10.393779,121.109558 5.697977,122.334435 1.000000,123.000000 
z"/>
<path fill="#000000" opacity="1.000000" stroke="none" 
	d="
M231.000000,513.000000 
	C154.394241,513.000000 77.788498,513.000000 1.000000,513.000000 
	C1.000000,406.312500 1.000000,299.624908 1.380737,192.528198 
	C2.397645,194.264130 3.136301,196.384750 3.654588,198.557938 
	C11.184611,230.131226 27.170124,256.380005 52.905937,276.392487 
	C75.690323,294.109863 101.376350,304.482330 130.416565,304.899048 
	C160.888016,305.336365 191.370590,304.993744 221.848312,304.999512 
	C228.982986,305.000854 228.999741,305.014893 229.000259,312.049713 
	C229.004913,374.337494 228.960159,436.625397 229.089432,498.912903 
	C229.099167,503.609924 230.334427,508.304352 231.000000,513.000000 
z"/>
<path fill="#000000" opacity="1.000000" stroke="none" 
	d="
M513.000000,192.000000 
	C513.000000,298.915009 513.000000,405.830048 513.000000,513.000000 
	C436.645966,513.000000 360.291626,513.000000 283.461060,512.608032 
	C283.655304,509.019165 284.904938,505.823364 284.910706,502.625336 
	C285.025696,439.172241 284.995239,375.718842 284.999054,312.265533 
	C284.999481,305.010101 285.012634,304.999817 292.435455,304.998749 
	C322.913025,304.994415 353.391846,305.143311 383.867310,304.889618 
	C391.112335,304.829285 398.511047,304.144867 405.556305,302.520813 
	C433.879578,295.991486 458.231995,282.533783 477.927338,260.718109 
	C495.189178,241.597916 506.132629,219.564346 511.115784,194.407516 
	C511.292480,193.515594 512.351990,192.798553 513.000000,192.000000 
z"/>
<path fill="#2D6409" opacity="1.000000" stroke="none" 
	d="
M513.000000,191.531342 
	C512.351990,192.798553 511.292480,193.515594 511.115784,194.407516 
	C506.132629,219.564346 495.189178,241.597916 477.927338,260.718109 
	C458.231995,282.533783 433.879578,295.991486 405.556305,302.520813 
	C398.511047,304.144867 391.112335,304.829285 383.867310,304.889618 
	C353.391846,305.143311 322.913025,304.994415 292.435455,304.998749 
	C285.012634,304.999817 284.999481,305.010101 284.999054,312.265533 
	C284.995239,375.718842 285.025696,439.172241 284.910706,502.625336 
	C284.904938,505.823364 283.655304,509.019165 282.992432,512.608032 
	C280.299988,513.000000 277.599976,513.000000 274.247131,512.723267 
	C269.529022,509.896881 268.951569,505.988464 268.955841,501.582367 
	C269.016418,439.111786 268.996704,376.641113 268.995300,314.170471 
	C268.995270,312.504639 268.900085,310.834106 268.994171,309.174011 
	C269.161163,306.228363 267.925293,304.908264 264.904053,304.994110 
	C260.742920,305.112335 256.575623,305.001648 252.410965,305.006287 
	C245.020782,305.014526 245.006866,305.019928 245.006393,312.353729 
	C245.002228,375.324127 244.965042,438.294586 245.078400,501.264801 
	C245.087173,506.136139 244.039978,510.099701 240.000000,513.000000 
	C237.299988,513.000000 234.599976,513.000000 231.449982,513.000000 
	C230.334427,508.304352 229.099167,503.609924 229.089432,498.912903 
	C228.960159,436.625397 229.004913,374.337494 229.000259,312.049713 
	C228.999741,305.014893 228.982986,305.000854 221.848312,304.999512 
	C191.370590,304.993744 160.888016,305.336365 130.416565,304.899048 
	C101.376350,304.482330 75.690323,294.109863 52.905937,276.392487 
	C27.170124,256.380005 11.184611,230.131226 3.654588,198.557938 
	C3.136301,196.384750 2.397645,194.264130 1.380737,192.059540 
	C1.000000,169.312439 1.000000,146.624878 1.000000,123.468658 
	C5.697977,122.334435 10.393779,121.109558 15.094274,121.091270 
	C54.748810,120.937027 94.404228,121.026512 134.059326,120.992691 
	C151.425323,120.977875 167.831116,125.091530 183.737900,131.845871 
	C200.808212,139.094269 215.570312,149.657883 228.290253,162.955475 
	C239.594635,174.773239 248.316483,188.452103 254.799057,203.511292 
	C255.364243,204.824234 256.042297,206.088593 256.655182,207.349304 
	C262.154144,197.833633 266.917847,188.143906 272.984650,179.353531 
	C294.257080,148.531204 323.544342,129.676865 360.422913,123.008049 
	C367.880249,121.659531 375.575073,121.124138 383.164398,121.089165 
	C422.985291,120.905670 462.807678,120.957199 502.628967,121.091522 
	C505.826538,121.102295 509.019897,122.356453 512.607605,123.016403 
	C513.000000,145.687561 513.000000,168.375122 513.000000,191.531342 
M424.185059,158.838455 
	C425.626678,164.640274 424.400024,167.029724 418.887787,170.054642 
	C404.443573,177.981125 389.711212,185.449326 375.697327,194.080261 
	C337.362213,217.690247 303.546967,246.509964 276.436951,282.754303 
	C275.112671,284.524750 273.945160,286.412415 272.352264,288.766235 
	C274.663086,288.874237 275.981323,288.989319 277.299591,288.989655 
	C310.777100,288.997742 344.274048,289.717896 377.727600,288.821716 
	C427.527344,287.487640 463.582001,263.640991 485.898834,219.198593 
	C498.761353,193.583817 497.480469,165.935394 496.747681,138.425827 
	C496.740204,138.144730 496.440155,137.871429 496.005920,137.135849 
	C489.823578,137.135849 483.373962,137.135849 475.999390,137.038422 
	C445.357208,137.030731 414.700226,136.414230 384.076263,137.157455 
	C337.691040,138.283264 302.750610,159.604279 279.670563,199.773132 
	C267.224365,221.434616 263.613617,245.172028 265.330078,270.820648 
	C268.880951,266.463928 271.829773,262.730957 274.898010,259.098907 
	C312.839264,214.185135 359.859802,181.306442 412.212952,155.478882 
	C417.009552,153.112579 420.844391,153.855576 424.185059,158.838455 
M118.686249,172.808258 
	C122.028740,168.667923 125.887108,167.982254 130.571808,170.657227 
	C172.155350,194.401611 209.533081,223.270874 240.179764,260.370361 
	C242.869202,263.626068 245.536026,266.900421 248.213348,270.166138 
	C248.726028,270.021057 249.238724,269.875977 249.751419,269.730927 
	C248.830780,258.190002 248.668900,246.528580 246.858704,235.128891 
	C238.841888,184.643372 194.182266,141.750244 143.141739,138.313889 
	C107.975105,135.946274 72.547951,137.448257 36.280476,137.073013 
	C30.021713,137.073013 23.762953,137.073013 17.005554,137.073013 
	C17.005554,148.260208 16.958014,158.716797 17.013294,169.172836 
	C17.364027,235.512283 70.622383,288.738037 136.991409,288.974792 
	C169.792511,289.091797 202.594345,289.000824 235.395859,288.985931 
	C237.118546,288.985138 238.841171,288.815643 241.766190,288.661194 
	C237.454727,282.982208 233.977768,278.161987 230.256210,273.538635 
	C201.036926,237.239029 165.093582,208.985779 124.860397,185.958054 
	C119.591270,182.942215 116.606339,179.411957 118.686249,172.808258 
z"/>
<path fill="#5EB132" opacity="1.000000" stroke="none" 
	d="
M240.468658,513.000000 
	C244.039978,510.099701 245.087173,506.136139 245.078400,501.264801 
	C244.965042,438.294586 245.002228,375.324127 245.006393,312.353729 
	C245.006866,305.019928 245.020782,305.014526 252.410965,305.006287 
	C256.575623,305.001648 260.742920,305.112335 264.904053,304.994110 
	C267.925293,304.908264 269.161163,306.228363 268.994171,309.174011 
	C268.900085,310.834106 268.995270,312.504639 268.995300,314.170471 
	C268.996704,376.641113 269.016418,439.111786 268.955841,501.582367 
	C268.951569,505.988464 269.529022,509.896881 273.797119,512.723267 
	C262.979095,513.000000 251.958206,513.000000 240.468658,513.000000 
z"/>
<path fill="#7FC94F" opacity="1.000000" stroke="none" 
	d="
M118.089005,173.160309 
	C116.606339,179.411957 119.591270,182.942215 124.860397,185.958054 
	C165.093582,208.985779 201.036926,237.239029 230.256210,273.538635 
	C233.977768,278.161987 237.454727,282.982208 241.766190,288.661194 
	C238.841171,288.815643 237.118546,288.985138 235.395859,288.985931 
	C202.594345,289.000824 169.792511,289.091797 136.991409,288.974792 
	C70.622383,288.738037 17.364027,235.512283 17.013294,169.172836 
	C16.958014,158.716797 17.005554,148.260208 17.005554,137.073013 
	C23.762953,137.073013 30.021713,137.073013 37.045486,137.319946 
	C55.048695,144.578018 72.286896,151.589172 89.452911,158.984619 
	C88.388420,163.568390 89.507118,166.996674 93.411507,169.044464 
	C97.902267,171.399750 101.337952,169.322113 104.700508,166.035736 
	C109.419144,168.459595 113.754074,170.809952 118.089005,173.160309 
z"/>
<path fill="#7FC94F" opacity="1.000000" stroke="none" 
	d="
M476.924377,137.135834 
	C483.373962,137.135849 489.823578,137.135849 496.005920,137.135849 
	C496.440155,137.871429 496.740204,138.144730 496.747681,138.425827 
	C497.480469,165.935394 498.761353,193.583817 485.898834,219.198593 
	C463.582001,263.640991 427.527344,287.487640 377.727600,288.821716 
	C344.274048,289.717896 310.777100,288.997742 277.299591,288.989655 
	C275.981323,288.989319 274.663086,288.874237 272.352264,288.766235 
	C273.945160,286.412415 275.112671,284.524750 276.436951,282.754303 
	C303.546967,246.509964 337.362213,217.690247 375.697327,194.080261 
	C389.711212,185.449326 404.443573,177.981125 418.887787,170.054642 
	C424.400024,167.029724 425.626678,164.640274 424.488586,158.435760 
	C435.230743,153.775146 445.653992,149.479080 456.113373,145.272720 
	C463.023529,142.493729 469.985565,139.843643 476.924377,137.135834 
z"/>
<path fill="#BAEC99" opacity="1.000000" stroke="none" 
	d="
M89.525093,158.600327 
	C72.286896,151.589172 55.048695,144.578018 37.523865,137.393845 
	C72.547951,137.448257 107.975105,135.946274 143.141739,138.313889 
	C194.182266,141.750244 238.841888,184.643372 246.858704,235.128891 
	C248.668900,246.528580 248.830780,258.190002 249.751419,269.730927 
	C249.238724,269.875977 248.726028,270.021057 248.213348,270.166138 
	C245.536026,266.900421 242.869202,263.626068 240.179764,260.370361 
	C209.533081,223.270874 172.155350,194.401611 130.571808,170.657227 
	C125.887108,167.982254 122.028740,168.667923 118.387627,172.984283 
	C113.754074,170.809952 109.419144,168.459595 104.762299,165.616226 
	C105.782814,160.522232 104.572105,156.853851 100.125847,154.816864 
	C95.526100,152.709534 92.205299,154.937958 89.525093,158.600327 
z"/>
<path fill="#BAEC99" opacity="1.000000" stroke="none" 
	d="
M476.461884,137.087128 
	C469.985565,139.843643 463.023529,142.493729 456.113373,145.272720 
	C445.653992,149.479080 435.230743,153.775146 424.417175,158.065201 
	C420.844391,153.855576 417.009552,153.112579 412.212952,155.478882 
	C359.859802,181.306442 312.839264,214.185135 274.898010,259.098907 
	C271.829773,262.730957 268.880951,266.463928 265.330078,270.820648 
	C263.613617,245.172028 267.224365,221.434616 279.670563,199.773132 
	C302.750610,159.604279 337.691040,138.283264 384.076263,137.157455 
	C414.700226,136.414230 445.357208,137.030731 476.461884,137.087128 
z"/>
<path fill="#31680D" opacity="1.000000" stroke="none" 
	d="
M89.452911,158.984619 
	C92.205299,154.937958 95.526100,152.709534 100.125847,154.816864 
	C104.572105,156.853851 105.782814,160.522232 104.378593,165.542725 
	C101.337952,169.322113 97.902267,171.399750 93.411507,169.044464 
	C89.507118,166.996674 88.388420,163.568390 89.452911,158.984619 
z"/>
</svg>